<?xml version="1.0" encoding="UTF-8"?>
<!DOCTYPE svg PUBLIC "-//W3C//DTD SVG 1.1//EN" "http://www.w3.org/Graphics/SVG/1.1/DTD/svg11.dtd">
<!-- Creator: CorelDRAW -->
<svg xmlns="http://www.w3.org/2000/svg" xml:space="preserve" width="100mm" height="150mm" version="1.1" style="shape-rendering:geometricPrecision; text-rendering:geometricPrecision; image-rendering:optimizeQuality; fill-rule:evenodd; clip-rule:evenodd"
viewBox="0 0 10000 15000"
 xmlns:xlink="http://www.w3.org/1999/xlink"
 xmlns:xodm="http://www.corel.com/coreldraw/odm/2003">
 <defs>
  <style type="text/css">
   <![CDATA[
    .fil0 {fill:none}
    .fil2 {fill:#3E4095}
    .fil1 {fill:url(#id0);fill-rule:nonzero}
   ]]>
  </style>
  <linearGradient id="id0" gradientUnits="userSpaceOnUse" x1="4156.72" y1="7432.45" x2="4721.75" y2="7432.45">
   <stop offset="0" style="stop-opacity:1; stop-color:#8C7BB8"/>
   <stop offset="1" style="stop-opacity:1; stop-color:#758AF7"/>
  </linearGradient>
 </defs>
 <g id="Camada_x0020_1">
  <metadata id="CorelCorpID_0Corel-Layer"/>
  <rect class="fil0" x="3947.36" y="6912.55" width="983.73" height="1039.8"/>
  <path class="fil1" d="M4378.95 7393.3l60.28 0c55.34,0 94.18,-7.34 116.67,-22.19 22.34,-14.69 33.59,-39.74 33.59,-74.83 0,-35.84 -10.8,-61.18 -32.24,-75.58 -21.59,-14.54 -63.28,-21.74 -125.06,-21.74l-53.24 0 0 194.34zm-210.61 -101.7l36.93 0c16.15,4.69 12.16,32.11 -0.32,33.59l-36.61 0c-13.1,0.35 -17.7,-29.22 0,-33.59zm0.43 -65.49l36.92 0c16.15,4.79 12.16,32.79 -0.31,34.3l-36.61 0c-13.1,0.36 -17.71,-29.84 0,-34.3zm0.42 192.68l36.92 0c16.15,4.69 12.16,32.13 -0.31,33.61l-36.61 0c-13.1,0.35 -17.71,-29.24 0,-33.61zm0.42 -64.78l36.93 0c16.15,4.97 12.16,34 -0.32,35.57l-36.61 0c-13.1,0.37 -17.7,-30.95 0,-35.57zm-0.9 129.17l36.93 0c16.15,4.7 12.16,32.12 -0.31,33.6l-36.62 0c-13.09,0.35 -17.7,-29.23 0,-33.6zm0.15 127.9l36.92 0c16.15,4.7 12.16,32.13 -0.31,33.61l-36.61 0c-13.1,0.35 -17.71,-29.24 0,-33.61zm0.42 -65.49l36.92 0c16.15,4.98 12.16,34.01 -0.31,35.58l-36.61 0c-13.1,0.37 -17.71,-30.95 0,-35.58zm131.24 -330.22l30.39 0c7.89,0.92 11.53,5.27 11.4,12.65l0 395.27 -55.11 0 0 -392.07c0.73,-9.11 4.05,-14.04 13.32,-15.85zm-13.38 417.14l55.31 -0.14 -27.52 41.58 -27.79 -41.44zm12.56 -426.58l33.3 0 0 -17.83c0.04,-4.4 -2.29,-6.45 -6.19,-6.93l-21.04 0c-4.13,0.04 -6.05,2.64 -6.07,7.44l0 17.32zm79.25 404.21c0,24.3 3.3,39.74 9.9,46.19 6.6,6.45 23.39,9.6 50.38,9.6l42.29 0 0 68.38 -323.91 0 0 -68.38 35.09 0c26.7,0 43.34,-3.15 49.79,-9.45 6.45,-6.3 9.6,-21.74 9.6,-46.34l0 -355.4c0,-24.59 -3.15,-40.03 -9.6,-46.33 -6.45,-6.3 -23.09,-9.45 -49.79,-9.45l-35.09 0 0 -68.38 317.76 0c81.43,0 142.76,13.95 184.3,41.84 41.39,27.74 62.08,69.13 62.08,123.86 0,29.99 -5.69,56.09 -16.94,78.28 -11.25,22.34 -28.34,41.24 -51.14,56.83 -16.34,10.8 -39.29,18.6 -68.53,23.25 -29.24,4.65 -70.18,7.05 -122.51,7.05l-83.68 0 0 148.45z"/>
  <path class="fil2" d="M4347.76 7202.26l30.39 0c7.89,0.92 11.53,5.27 11.4,12.65l0 395.27 -55.11 0 0 -392.07c0.73,-9.11 4.05,-14.04 13.32,-15.85zm-13.38 417.14l55.31 -0.14 -27.52 41.58 -27.79 -41.44zm12.56 -426.58l33.3 0 0 -17.83c0.04,-4.4 -2.29,-6.45 -6.19,-6.93l-21.04 0c-4.13,0.04 -6.05,2.64 -6.07,7.44l0 17.32z"/>
 </g>
</svg>
